<svg xmlns="http://www.w3.org/2000/svg" viewBox="0 0 1024 1024">
  <defs>
    <linearGradient id="bg" x1="128" y1="64" x2="896" y2="960" gradientUnits="userSpaceOnUse">
      <stop stop-color="#9B8CFF"/>
      <stop offset="0.48" stop-color="#7465F2"/>
      <stop offset="1" stop-color="#4D7CEB"/>
    </linearGradient>
    <linearGradient id="shine" x1="280" y1="160" x2="720" y2="860" gradientUnits="userSpaceOnUse">
      <stop stop-color="white" stop-opacity="0.98"/>
      <stop offset="1" stop-color="#EAF2FF" stop-opacity="0.88"/>
    </linearGradient>
    <filter id="shadow" x="-20%" y="-20%" width="140%" height="150%">
      <feDropShadow dx="0" dy="24" stdDeviation="24" flood-color="#243071" flood-opacity="0.28"/>
    </filter>
  </defs>
  <rect x="56" y="56" width="912" height="912" rx="248" fill="url(#bg)"/>
  <path d="M178 214C282 105 487 74 671 132c115 36 203 107 259 199-80-57-181-92-293-92-190 0-358 98-459 246-39-100-35-198 0-271Z" fill="white" fill-opacity="0.13"/>
  <g fill="none" stroke="url(#shine)" stroke-width="72" stroke-linecap="round" stroke-linejoin="round" filter="url(#shadow)">
    <path d="M512 247v350"/>
    <path d="m350 458 162 162 162-162"/>
    <path d="M298 762h428"/>
  </g>
</svg>
